<svg width="195" height="247" viewBox="0 0 195 247" fill="none" xmlns="http://www.w3.org/2000/svg">
<path d="M155.785 222.405C136.725 223.59 117.697 225.49 98.6042 226.118C79.2077 226.756 59.8682 225.825 40.5304 224.33C31.3658 223.622 22.1693 223.042 13.023 222.131C8.95952 221.726 4.85991 221.03 0.782715 220.735C1.09191 223.818 1.55495 226.458 2.20892 228.333C5.04279 236.455 12.1838 240.985 20.2512 242.816C34.8682 246.132 51.3082 245.093 66.1897 244.909C96.0037 244.54 125.897 244.306 155.608 241.637C166.513 241.534 180.772 240.978 185.1 228.943C185.752 227.128 186.254 224.805 186.627 222.138C176.345 221.981 166.06 221.766 155.785 222.405Z" fill="#FDDFC1"/>
<path d="M16.8626 207.916C26.4042 207.388 35.9319 207.31 45.4866 207.53C65.983 208.006 86.4084 208.795 106.917 208.366C127.524 207.934 148.115 206.851 168.727 206.623C174.985 206.554 181.233 206.717 187.475 206.868C187.428 193.627 185.824 178.923 183.697 171.861C179.329 157.368 167.071 153.548 153.249 152.144C133.807 150.169 66.7314 151.613 49.5968 151.189C38.3573 150.91 25.1217 148.318 15.793 156.176C7.99768 162.741 4.56021 172.451 2.41398 182.128C1.25644 187.344 0.326472 198.229 0.286836 208.443C5.81676 208.628 11.4155 208.218 16.8626 207.916Z" fill="#FDDFC1"/>
<path d="M168.726 206.624C148.114 206.851 127.523 207.935 106.916 208.367C86.4083 208.795 65.983 208.006 45.4856 207.531C35.9318 207.311 26.4031 207.389 16.8615 207.917C11.4145 208.219 5.81473 208.629 0.283809 208.444C0.279117 209.641 0.285481 210.829 0.305975 211.997C0.340552 213.93 0.413509 215.805 0.525075 217.585C0.594056 218.677 0.679289 219.731 0.779828 220.736C4.85702 221.032 8.95663 221.727 13.0201 222.132C22.1664 223.043 31.3629 223.622 40.5276 224.331C59.8653 225.826 79.2048 226.757 98.6013 226.119C117.694 225.491 136.722 223.591 155.782 222.406C166.057 221.767 176.342 221.981 186.624 222.139C186.829 220.664 186.992 219.079 187.121 217.416C187.274 215.437 187.375 213.347 187.428 211.183C187.462 209.77 187.477 208.329 187.472 206.869C181.233 206.717 174.984 206.554 168.726 206.624Z" fill="#F3987F"/>
<path d="M192.662 189.206C191.934 172.102 184.888 157.952 168.975 150.186C147.71 139.806 120.782 141.817 97.9288 142.478C76.2783 143.105 53.3871 141.814 32.202 146.906C24.0662 148.861 16.0182 152.419 9.86611 158.172C5.75432 162.017 2.85975 172.056 2.78904 172.477C1.73575 178.744 -4.79282 207.445 9.11177 203.507C13.9046 202.148 17.9436 197.032 21.7895 194.1C24.7309 191.859 27.8488 189.866 31.6747 189.899C35.1026 189.928 37.5408 193.472 39.2459 195.964C41.798 199.692 43.919 203.584 47.9501 205.913C52.3429 208.452 57.2417 205.074 60.4755 202.308C64.2836 199.049 67.0389 194.812 70.7385 191.453C77.7817 185.061 80.1919 199.977 80.9705 204.406C82.3877 212.469 83.3805 222.147 88.43 228.937C90.2662 231.407 92.7179 232.551 95.7515 231.997C99.7092 231.272 101.43 225.176 102.487 222.035C104.587 215.788 106.854 209.596 108.897 203.324C110.738 197.668 113.37 190.817 120.553 192.512C126.775 193.983 132.218 197.945 138.353 199.796C145.622 201.99 153.713 198.786 160.666 201.878C169.182 205.666 172.128 219.818 182.29 220.722C194.728 221.828 192.963 196.278 192.662 189.206Z" fill="#4D3C24"/>
<path d="M163.65 119.722C160.276 108.527 150.807 105.576 140.13 104.49C125.111 102.965 73.2961 104.081 60.06 103.753C51.3772 103.538 41.1538 101.535 33.9467 107.605C27.9249 112.677 25.2697 120.178 23.6106 127.653C22.0061 134.882 21.051 142.832 23.5392 149.964C25.728 156.239 31.2446 159.739 37.4776 161.153C48.7684 163.715 61.4688 162.912 72.965 162.77C95.9953 162.484 119.088 162.303 142.039 160.243C150.463 160.162 161.478 159.735 164.821 150.437C168.115 141.278 166.41 128.877 163.65 119.722Z" fill="#9C613D"/>
<path d="M127.059 101.71C117.056 101.646 68.8113 100.791 58.8276 101.325C24.5431 103.159 22.6541 120.121 22.9848 130.289C23.2614 138.745 32.879 142.115 36.1213 135.223C40.8085 125.258 49.508 123.641 49.5321 133.124C49.5727 148.748 67.3919 150.646 68.5694 138.116C70.1624 121.166 80.3027 123.472 80.5877 130.638C80.8606 137.505 83.7201 148.179 94.2647 144.061C103.799 140.337 109.882 118.227 122.293 124.086C127.574 126.579 130.984 133.335 134.779 137.598C138.789 142.102 143.8 144.73 150.033 144.446C164.02 143.809 183.843 102.075 127.059 101.71Z" fill="#4D3C24"/>
<path d="M142.658 68.4199C137.917 59.0622 124.4 60.0884 115.764 60.5559C107.868 60.9832 99.9992 61.6666 92.0875 61.7398C85.545 61.8007 79.028 61.1589 72.4925 61.0599C62.6961 58.6049 54.2366 59.4305 48.9318 69.3416C44.2181 78.1465 42.9674 91.3337 45.7198 100.922C48.9085 112.029 62.6996 110.656 71.7178 109.875C78.8439 109.259 85.8878 108.06 93.0501 107.881C101.429 107.671 109.819 108.454 118.179 108.898C126.539 109.343 139.126 111.418 142.959 101.574C146.76 91.8027 147.454 77.8849 142.658 68.4199Z" fill="#F3987F"/>
<path d="M129.471 58.0999C115.903 58.0127 102.549 57.3139 88.9998 57.8008C79.8235 58.1309 70.2874 57.3396 61.4718 59.744C51.0259 60.7779 44.9247 67.3328 44.2544 77.9568C43.8178 84.8941 49.0397 90.2118 55.0678 85.5474C57.8598 83.3873 59.9108 80.2704 62.3382 77.7339C65.8025 74.1141 66.2695 78.7882 66.9185 81.9055C67.9497 86.8472 69.2454 94.6757 76.1194 92.8428C80.7494 91.6076 89.0952 75.6308 92.8188 78.9868C96.4717 82.2794 96.5174 87.6138 101.394 90.0162C105.818 92.1956 110.531 89.1389 113.912 86.5046C116.514 84.4782 118.692 82.0262 121.832 80.7783C124.221 79.8297 125.18 82.1649 126.055 83.9035C127.949 87.6728 129.389 91.6221 132.87 94.2425C138.944 98.8167 144.364 88.7773 146.111 84.5924C148.306 79.3324 151.792 58.2434 129.471 58.0999Z" fill="#4D3C24"/>
<path d="M84.8236 25.4874C84.5565 21.6076 79.1854 21.604 78.8247 25.4488C78.6196 27.6395 78.4635 29.8346 78.3214 32.0307C80.6001 30.8423 82.7779 29.4713 84.9618 28.1023C84.9294 27.2301 84.884 26.3578 84.8236 25.4874Z" fill="#F3987F"/>
<path d="M84.4967 48.2827C82.1699 49.7958 79.5355 50.9469 76.9954 52.0376C76.8806 54.0259 76.8449 56.0097 76.9543 57.9645C79.7084 57.1922 82.0533 55.4922 84.388 53.8471C84.4459 51.9885 84.4549 50.1255 84.4967 48.2827Z" fill="#F3987F"/>
<path d="M84.8489 39.8478C82.5908 41.4064 80.0887 42.6643 77.61 43.8574C77.5058 45.4398 77.3654 47.0539 77.233 48.6811C79.7758 47.3204 82.2538 45.9233 84.6516 44.2517C84.721 42.7861 84.7884 41.3175 84.8489 39.8478Z" fill="#F3987F"/>
<path d="M77.2527 60.8814C77.2844 61.0906 77.301 61.3037 77.3377 61.512C77.8935 64.6576 82.9827 64.6443 83.6145 61.5523C83.8376 60.4617 83.9887 59.3517 84.1059 58.2344C83.5781 58.506 83.0605 58.7557 82.5881 58.9777C80.8849 59.7737 79.1069 60.5483 77.2527 60.8814Z" fill="#F3987F"/>
<path d="M85.029 31.7448C82.7992 33.1165 80.5129 34.3898 78.1105 35.3764C78.0105 37.0978 77.9114 38.8202 77.8113 40.5416C80.3135 39.1247 82.7222 37.6211 84.989 35.7996C85.0226 34.4478 85.0343 33.0959 85.029 31.7448Z" fill="#F3987F"/>
<path d="M84.9626 28.1023C82.7787 29.4713 80.6008 30.8423 78.3222 32.0307C78.25 33.1453 78.1768 34.2598 78.1117 35.3764C80.5141 34.3899 82.7993 33.1165 85.0301 31.7448C85.025 30.5298 85.0088 29.3146 84.9626 28.1023Z" fill="#F26140"/>
<path d="M84.989 35.7996C82.7222 37.6211 80.3135 39.1246 77.8113 40.5416C77.7506 41.5862 77.6909 42.6299 77.6242 43.6725C77.6208 43.7334 77.6144 43.7964 77.61 43.8574C80.0887 42.6643 82.5909 41.4063 84.8489 39.8478C84.9046 38.4991 84.9553 37.1504 84.989 35.7996Z" fill="#F26140"/>
<path d="M84.5683 46.0371C84.5951 45.4423 84.6229 44.8475 84.6518 44.2516C82.254 45.9233 79.7759 47.3204 77.2331 48.6811C77.142 49.7955 77.0588 50.916 76.9946 52.0366C79.5346 50.9459 82.1691 49.7958 84.4959 48.2817C84.5127 47.5308 84.5335 46.7809 84.5683 46.0371Z" fill="#F26140"/>
<path d="M76.9547 57.9635C77.0094 58.9458 77.1061 59.9195 77.2519 60.8814C79.1071 60.5483 80.8851 59.7748 82.5873 58.9777C83.0597 58.7557 83.5773 58.5061 84.1051 58.2344C84.2564 56.7834 84.3418 55.3179 84.3873 53.8461C82.0537 55.4912 79.7087 57.1912 76.9547 57.9635Z" fill="#F26140"/>
<path d="M85.4108 2.08065C84.9746 0.244806 82.4342 -0.00553234 81.4992 1.54349C78.3546 6.75539 68.5785 25.415 80.9769 25.5496C81.3199 25.8718 81.8047 26.057 82.4492 25.9861C95.743 24.5005 87.187 9.53822 85.4108 2.08065Z" fill="#F26140"/>
<path d="M83.9832 11.0326C83.7466 10.0371 82.3694 9.90126 81.862 10.742C80.1578 13.5671 74.8577 23.6833 81.5794 23.7575C81.7643 23.9317 82.0276 24.0323 82.3769 23.9936C89.5842 23.1889 84.9462 15.0759 83.9832 11.0326Z" fill="#FFF174"/>
<path d="M99.8899 31.0143C98.7561 27.3989 93.8463 28.9194 94.3483 32.5027C94.6504 34.6627 94.8096 36.8158 94.8827 38.9673C97.0402 37.6531 98.9452 36.1053 100.736 34.3698C100.511 33.2373 100.236 32.1156 99.8899 31.0143Z" fill="#F3987F"/>
<path d="M94.2588 61.3577C94.243 65.5277 100.589 65.5545 100.717 61.3992C100.798 58.7117 100.997 55.9469 101.184 53.1551C99.032 54.5023 96.7047 55.6333 94.3761 56.5004C94.3117 58.116 94.2653 59.7358 94.2588 61.3577Z" fill="#F3987F"/>
<path d="M101.329 38.3897C99.3464 39.954 97.111 41.2466 94.9308 42.2106C94.9262 43.3846 94.9027 44.5595 94.8651 45.7323C97.3296 44.5771 99.3626 42.8741 101.516 41.2399C101.475 40.2857 101.42 39.3333 101.329 38.3897Z" fill="#F3987F"/>
<path d="M94.7367 48.9325C94.6695 50.3651 94.5942 51.7997 94.523 53.2343C96.8805 51.9304 99.0853 50.3975 101.427 49.0786C101.487 47.8989 101.532 46.7192 101.555 45.5403C99.4309 47.0447 97.0729 48.2885 94.7367 48.9325Z" fill="#F3987F"/>
<path d="M100.737 34.3698C98.9463 36.1053 97.0413 37.6531 94.8838 38.9673C94.9198 40.0496 94.9349 41.1307 94.931 42.2107C97.1112 41.2457 99.3465 39.954 101.33 38.3897C101.198 37.0348 101.002 35.6935 100.737 34.3698Z" fill="#F26140"/>
<path d="M101.515 41.24C99.3629 42.8732 97.3289 44.5771 94.8645 45.7323C94.8306 46.7991 94.7868 47.8648 94.7369 48.9325C97.0731 48.2885 99.4301 47.0447 101.555 45.5403C101.583 44.1015 101.574 42.6664 101.515 41.24Z" fill="#F26140"/>
<path d="M94.3749 56.5004C96.7035 55.6333 99.0308 54.5022 101.182 53.155C101.272 51.8006 101.358 50.4411 101.427 49.0775C99.0852 50.3965 96.8803 51.9294 94.5229 53.2332C94.4679 54.3219 94.4179 55.4106 94.3749 56.5004Z" fill="#F26140"/>
<path d="M100.938 15.0837C100.8 13.5358 98.6145 12.5567 97.7619 14.2013C95.7955 17.9937 91.6027 20.9168 91.3263 25.4831C91.0926 29.3217 92.738 32.5314 96.7752 32.8353C97.09 32.8593 97.3505 32.781 97.5564 32.6413C97.5905 32.6385 97.6194 32.6437 97.6545 32.64C101.346 32.2057 104.497 30.6319 104.327 26.4687C104.163 22.4436 101.294 19.0571 100.938 15.0837Z" fill="#F26140"/>
<path d="M99.5609 20.87C99.4835 20.0025 98.259 19.4556 97.7821 20.3765C96.6814 22.4995 94.3349 24.1365 94.1794 26.6925C94.0476 28.8417 94.9701 30.6387 97.229 30.8082C97.4059 30.8223 97.5512 30.7783 97.6677 30.7C97.6867 30.6981 97.7027 30.7012 97.7217 30.6994C99.7894 30.4556 101.553 29.576 101.458 27.2443C101.366 24.9907 99.7597 23.0943 99.5609 20.87Z" fill="#FFF174"/>
<path d="M114.043 26.3331C113.324 23.2294 107.991 23.8102 108.391 27.0618C108.691 29.5008 108.968 31.9936 109.199 34.5142C111.106 33.2784 112.987 32.0025 114.898 30.7747C114.656 29.2781 114.381 27.7943 114.043 26.3331Z" fill="#F3987F"/>
<path d="M108.933 58.772C111.766 57.6111 114.208 55.5538 116.68 53.6216C116.614 51.9202 116.477 50.3142 116.397 49.0217C114.172 50.3984 111.891 51.6818 109.598 52.9161C109.458 54.8912 109.238 56.8459 108.933 58.772Z" fill="#F3987F"/>
<path d="M116.06 41.9474C114.046 43.3505 111.987 44.6823 109.805 45.7763C109.817 47.0464 109.801 48.3143 109.762 49.5771C111.929 48.221 114.092 46.8649 116.247 45.4937C116.194 44.3163 116.131 43.1329 116.06 41.9474Z" fill="#F3987F"/>
<path d="M113.224 65.1097C115.647 63.7842 116.471 60.6465 116.669 57.2887C114.114 59.2633 111.45 61.0982 108.41 61.8266C108.184 64.4002 110.731 66.4737 113.224 65.1097Z" fill="#F3987F"/>
<path d="M115.366 34.0378C113.437 35.3094 111.484 36.5439 109.462 37.6589C109.582 39.3077 109.674 40.9644 109.734 42.6218C111.793 41.281 113.788 39.8468 115.812 38.4558C115.691 36.979 115.547 35.505 115.366 34.0378Z" fill="#F3987F"/>
<path d="M114.898 30.7737C112.988 32.0025 111.106 33.2774 109.199 34.5132C109.295 35.5578 109.384 36.6064 109.462 37.6589C111.484 36.5439 113.437 35.3094 115.366 34.0378C115.232 32.9439 115.073 31.8559 114.898 30.7737Z" fill="#F26140"/>
<path d="M115.812 38.4558C113.788 39.8468 111.793 41.281 109.734 42.6218C109.771 43.673 109.796 44.7262 109.804 45.7763C111.986 44.6823 114.046 43.3505 116.06 41.9474C115.991 40.784 115.909 39.6204 115.812 38.4558Z" fill="#F26140"/>
<path d="M116.246 45.4937C114.091 46.8649 111.929 48.221 109.761 49.5771C109.727 50.6939 109.678 51.8086 109.599 52.9161C111.892 51.6828 114.173 50.3985 116.398 49.0217C116.379 48.7136 116.363 48.4225 116.354 48.1525C116.319 47.2712 116.285 46.384 116.246 45.4937Z" fill="#F26140"/>
<path d="M108.465 61.403C108.436 61.5458 108.42 61.6857 108.408 61.8266C111.45 61.0982 114.114 59.2623 116.668 57.2887C116.74 56.0691 116.728 54.822 116.68 53.6216C114.208 55.5548 111.765 57.6121 108.933 58.772C108.794 59.6551 108.644 60.5341 108.465 61.403Z" fill="#F26140"/>
<path d="M119.263 20.3166C118.594 15.6842 115.557 12.1176 113.906 7.88288C113.26 6.22669 111.256 5.8458 110.198 7.37504C106.621 12.5362 100.896 22.3366 108.631 26.7064C108.973 26.8986 109.317 26.9508 109.638 26.9078C109.943 27.1578 110.332 27.3313 110.81 27.3764C115.608 27.8242 120.05 25.7717 119.263 20.3166Z" fill="#F26140"/>
<path d="M115.806 21.7014C115.459 19.2891 113.877 17.4309 113.017 15.2273C112.68 14.3641 111.638 14.1654 111.085 14.9619C109.223 17.649 106.241 22.7539 110.27 25.0298C110.448 25.13 110.626 25.1561 110.794 25.1352C110.953 25.2642 111.156 25.3545 111.405 25.3791C113.904 25.6112 116.218 24.5421 115.806 21.7014Z" fill="#FFF174"/>
<path d="M58.3893 65.7473C57.3716 67.4088 56.659 69.3663 56.0402 71.2083C55.3857 73.1512 58.478 74.5111 59.3631 72.6337C60.2076 70.8421 60.8039 68.9359 61.5168 67.0895C62.2358 65.223 59.3737 64.1386 58.3893 65.7473Z" fill="#FEE079"/>
<path d="M70.5044 70.5993C70.1069 69.1097 69.4259 67.7103 68.4968 66.4803C67.9276 65.7276 67.0232 65.3258 66.1268 65.842C65.2917 66.3237 65.0389 67.3801 65.4886 68.213C66.0707 69.2878 66.5325 70.4007 66.8289 71.5877C67.4237 73.9645 71.1381 72.9744 70.5044 70.5993Z" fill="#FEE079"/>
<path d="M80.5036 69.0205C80.2783 68.125 79.3078 67.5868 78.4262 67.8231C77.4545 68.0839 77.0987 68.9866 77.2289 69.9005C77.3753 70.9264 76.4194 72.1503 75.8565 72.9047C75.2402 73.7308 75.703 75.0068 76.5159 75.49C77.4603 76.0511 78.5009 75.6618 79.1022 74.8296C80.3029 73.1683 81.0205 71.0629 80.5036 69.0205Z" fill="#FEE079"/>
<path d="M92.7433 67.5731C92.0238 66.7115 91.4192 66.0256 91.0677 65.0103C90.3441 62.9236 87.3959 63.7347 87.776 65.8942C88.0664 67.5451 88.8788 69.0373 90.1317 70.1514C91.9135 71.7349 94.2557 69.3849 92.7433 67.5731Z" fill="#FEE079"/>
<path d="M101.133 70.2831C101.089 71.2428 100.761 72.1647 100.489 73.182C100.229 74.1583 100.787 75.195 101.769 75.4723C102.83 75.7711 103.671 75.1235 104.06 74.191C104.574 72.9583 104.82 71.6448 104.818 70.3058C104.815 67.9227 101.24 67.9167 101.133 70.2831Z" fill="#FEE079"/>
<path d="M113.8 70.9045C113.427 72.1421 112.904 73.3328 112.65 74.6042C112.446 75.6259 112.91 76.6689 113.972 76.9677C115.005 77.2584 116.014 76.6378 116.336 75.6459C116.735 74.4144 116.992 73.1481 117.271 71.8858C117.771 69.625 114.475 68.6668 113.8 70.9045Z" fill="#FEE079"/>
<path d="M132.336 64.8885C132.02 63.7474 131.678 62.6172 131.27 61.5046C130.931 60.5784 130.068 59.9528 129.05 60.2253C128.101 60.4802 127.51 61.4934 127.771 62.4451C128.084 63.5871 128.294 64.7505 128.699 65.8661C129.049 66.8294 129.95 67.4782 131.006 67.196C131.991 66.9323 132.611 65.8773 132.336 64.8885Z" fill="#FEE079"/>
<path d="M141.958 65.5894C141.046 65.0465 140.067 65.4322 139.482 66.2214C139.457 66.2553 139.44 66.2782 139.423 66.2991C139.374 66.3587 139.325 66.4184 139.274 66.4751C139.116 66.6591 138.941 66.828 138.761 66.9898L138.759 66.9918C138.664 67.0572 138.567 67.1176 138.467 67.1759C138.386 67.2194 138.305 67.2629 138.224 67.3074C138.198 67.3222 138.188 67.3281 138.17 67.338C138.164 67.34 138.163 67.34 138.155 67.3429C137.189 67.6957 136.539 68.5966 136.822 69.6554C137.078 70.6071 138.157 71.31 139.134 70.9883C140.688 70.4773 141.729 69.423 142.59 68.0655C143.118 67.2328 142.786 66.0817 141.958 65.5894Z" fill="#FEE079"/>
<path d="M134.743 76.3702C134.223 75.5498 133.473 74.941 132.749 74.3113C132.013 73.6696 130.947 73.5687 130.211 74.295C129.476 75.0213 129.563 76.0879 130.195 76.8339C130.814 77.5659 131.414 78.3238 132.227 78.8541C133.752 79.8469 135.715 77.9085 134.743 76.3702Z" fill="#FEE079"/>
<path d="M149.312 75.1708C149.04 74.159 147.949 73.511 146.93 73.7984C146.738 73.8532 146.546 73.901 146.349 73.9427C146.315 73.9495 146.14 73.9754 146.05 73.9918C145.92 73.995 145.789 73.9941 145.659 73.9863C145.439 73.9619 145.425 73.9598 145.615 73.98C145.481 73.9551 145.347 73.9253 145.216 73.8914C144.244 73.6582 143.231 74.1677 142.95 75.1589C142.655 76.208 143.294 77.0402 144.218 77.4241C145.418 77.9218 146.707 77.9701 147.938 77.552C148.94 77.2114 149.599 76.2447 149.312 75.1708Z" fill="#FEE079"/>
<path d="M72.0971 58.9323C71.3506 58.2245 70.4884 57.6309 69.5916 57.1271C68.647 56.5961 67.4916 55.8846 66.3861 55.9545C64.7294 56.0599 63.9156 57.8857 65.0365 59.1529C65.6819 59.8821 66.7003 60.1326 67.5576 60.5551C68.3391 60.9412 69.0711 61.4039 69.8254 61.8377C71.6327 62.8754 73.6566 60.4133 72.0971 58.9323Z" fill="#FEE079"/>
<path d="M52.4071 67.1199C52.1678 66.2284 51.1461 65.5538 50.2271 65.8639C48.5024 66.4448 46.91 67.4346 45.2877 68.2442C44.3387 68.7171 44.0663 70.0264 44.5716 70.9027C45.1255 71.8613 46.28 72.0917 47.2301 71.6178C48.7089 70.8793 50.2132 70.0579 51.5782 69.1237C52.2412 68.6689 52.6259 67.9364 52.4071 67.1199Z" fill="#FEE079"/>
<path d="M35.9065 112.465C35.2519 112.865 34.6102 113.286 33.9734 113.713C33.2111 114.227 32.364 114.709 31.7644 115.413C30.3689 117.053 32.0526 119.123 33.9649 118.303C34.6729 117.999 35.2642 117.482 35.8812 117.027C36.6277 116.477 37.3713 115.916 38.0683 115.304C39.614 113.945 37.6373 111.407 35.9065 112.465Z" fill="#F9BE89"/>
<path d="M35.2555 124.302C34.8186 123.357 34.5011 122.806 34.4414 121.82C34.3059 119.562 31.0142 119.511 30.9155 121.797C30.8415 123.518 31.2549 125.163 32.3784 126.491C32.9014 127.11 33.917 127.176 34.5855 126.791C35.5019 126.263 35.6727 125.204 35.2555 124.302Z" fill="#F9BE89"/>
<path d="M24.9789 124.313C24.0787 124.802 23.275 125.531 22.5196 126.218C21.7631 126.905 20.989 127.703 20.5311 128.622C19.6021 130.489 21.7899 132.235 23.3798 130.85C24.0426 130.272 24.5861 129.56 25.1863 128.918C25.7894 128.272 26.479 127.722 27.098 127.095C28.5193 125.655 26.7421 123.355 24.9789 124.313Z" fill="#F9BE89"/>
<path d="M46.4766 123.351C46.1174 122.771 45.7069 122.222 45.3928 121.615C45.1261 121.102 45.055 120.341 44.96 119.71C44.842 118.928 43.9635 118.38 43.2296 118.375C42.1626 118.368 41.5333 119.191 41.415 120.166C41.1563 122.302 42.2023 124.631 43.9556 125.84C45.4809 126.892 47.4189 124.871 46.4766 123.351Z" fill="#F9BE89"/>
<path d="M46.2188 108.413C45.8355 107.537 45.2363 106.784 44.5546 106.118C43.8162 105.398 42.8962 104.605 41.957 104.17C41.1255 103.784 40.2104 103.786 39.5191 104.468C38.8126 105.166 38.6391 106.63 39.5008 107.311C40.7764 108.315 42.3032 108.963 43.0721 110.225C43.5867 111.068 44.6776 111.396 45.5509 110.892C46.4783 110.358 46.615 109.32 46.2188 108.413Z" fill="#F9BE89"/>
<path d="M59.6955 117.056C59.479 116.031 58.3098 115.438 57.3392 115.698C56.2412 115.993 55.8276 117.019 55.981 118.054C56.1717 119.337 56.0528 120.569 55.5601 121.768C54.7006 123.86 58.1396 125.283 59.1732 123.319C60.22 121.333 60.1497 119.203 59.6955 117.056Z" fill="#F9BE89"/>
<path d="M73.4742 115.725C73.4322 115.723 73.4122 115.723 73.3862 115.723C73.3612 115.717 73.3462 115.712 73.3083 115.704C73.1375 115.668 72.9668 115.629 72.795 115.595C72.3506 115.505 71.893 115.437 71.4389 115.447C70.4287 115.472 69.5797 116.256 69.573 117.29C69.566 118.383 70.4118 119.041 71.4151 119.157C70.9904 119.108 71.5307 119.209 71.5886 119.225C71.7563 119.273 71.922 119.327 72.0897 119.378C72.5228 119.512 73.0005 119.564 73.4504 119.584C74.5021 119.633 75.3862 118.688 75.3927 117.667C75.3997 116.585 74.5259 115.773 73.4742 115.725Z" fill="#F9BE89"/>
<path d="M88.9201 114.273C87.859 113.973 87.0258 114.62 86.6358 115.551C85.8508 117.416 85.3858 119.442 85.5047 121.47C85.6462 123.884 88.9904 123.865 89.2227 121.494C89.3865 119.811 89.6271 118.155 90.1984 116.558C90.5385 115.606 89.8404 114.531 88.9201 114.273Z" fill="#F9BE89"/>
<path d="M106.574 122.44C106.323 121.503 105.158 120.644 104.164 121.052C104.143 121.06 104.115 121.068 104.088 121.076C103.313 120.581 102.358 120.523 101.634 121.237C100.849 122.012 100.942 123.15 101.616 123.945C102.062 124.471 102.638 124.948 103.332 125.087C104.179 125.258 104.907 125.059 105.656 124.655C106.428 124.238 106.798 123.274 106.574 122.44Z" fill="#F9BE89"/>
<path d="M112.766 110.932C112.479 109.862 111.398 109.307 110.351 109.54C108.599 109.93 107.123 110.974 106.2 112.517C105.774 113.231 105.893 114.172 106.476 114.761C107.128 115.423 108.452 115.56 109.093 114.778C109.239 114.6 109.392 114.433 109.558 114.272C109.642 114.194 109.728 114.119 109.818 114.047C109.831 114.037 109.833 114.034 109.843 114.025C109.865 114.014 109.902 113.992 109.979 113.941C110.079 113.878 110.18 113.82 110.283 113.766C110.328 113.741 110.858 113.52 110.467 113.67C110.989 113.451 111.106 113.404 110.816 113.527C110.998 113.455 111.186 113.401 111.373 113.346C112.403 113.042 113.049 111.988 112.766 110.932Z" fill="#F9BE89"/>
<path d="M129.762 115.418C129.484 115.282 129.209 115.141 128.932 115.004C128.781 114.929 128.632 114.854 128.484 114.773C128.409 114.73 128.028 114.445 128.381 114.736C127.647 114.129 126.638 114 125.91 114.72C125.22 115.401 125.24 116.498 125.894 117.19C126.454 117.785 127.18 118.191 127.895 118.568C128.777 119.034 129.875 118.816 130.404 117.927C130.882 117.121 130.657 115.857 129.762 115.418Z" fill="#F9BE89"/>
<path d="M139.29 121.16C138.342 120.597 137.223 120.964 136.633 121.838C135.706 123.214 135.173 124.894 135.068 126.542C134.953 128.323 137.727 129.169 138.511 127.498C139.082 126.283 139.306 124.898 139.969 123.816C140.519 122.914 140.187 121.693 139.29 121.16Z" fill="#F9BE89"/>
<path d="M153.201 123.624C153.139 123.584 152.732 123.278 153.081 123.559C152.928 123.433 152.77 123.312 152.609 123.196C152.586 123.178 152.561 123.158 152.524 123.128C152.18 122.853 151.857 122.55 151.532 122.253C150.77 121.556 149.615 121.484 148.852 122.236C148.09 122.988 148.149 124.144 148.835 124.915C149.532 125.695 150.246 126.527 151.219 126.966C152.184 127.402 153.297 127.27 153.881 126.286C154.435 125.354 154.092 124.192 153.201 123.624Z" fill="#F9BE89"/>
<path d="M149.443 110.442C148.959 109.604 147.829 109.279 146.986 109.782C145.662 110.57 144.602 111.65 143.529 112.74C142.834 113.448 142.807 114.604 143.513 115.318C144.219 116.033 145.373 116.021 146.09 115.335C146.548 114.897 147.007 114.46 147.478 114.035C147.874 113.677 148.487 113.124 148.782 112.898C149.561 112.307 149.981 111.375 149.443 110.442Z" fill="#F9BE89"/>
<path d="M160.756 116.207C160.227 115.29 158.996 114.941 158.075 115.486C157.648 115.739 157.217 115.994 156.779 116.232C156.625 116.315 156.466 116.387 156.306 116.459C156.281 116.461 155.879 116.626 155.824 116.645C154.826 117.001 154.158 117.945 154.45 119.032C154.716 120.026 155.821 120.72 156.835 120.406C157.977 120.052 159.059 119.58 160.035 118.887C160.904 118.269 161.329 117.201 160.756 116.207Z" fill="#F9BE89"/>
<path d="M22.494 159.199C20.8466 157.7 18.0476 157.543 16.2262 158.831C14.5657 160.007 15.5002 162.727 17.6246 162.208C18.7974 161.922 19.6455 161.76 20.7359 162.174C22.4148 162.811 23.7805 160.369 22.494 159.199Z" fill="#E56156"/>
<path d="M16.0195 166.264C15.2822 165.517 14.1987 165.605 13.4415 166.248C13.4365 166.252 13.4345 166.253 13.4305 166.257C13.3531 166.309 13.2758 166.359 13.1955 166.406C12.9746 166.542 12.7409 166.658 12.5111 166.78C11.9552 167.071 11.4171 167.4 11.003 167.881C10.4418 168.533 10.2403 169.391 10.6922 170.175C11.16 170.986 12.4538 171.496 13.2798 170.872C14.1752 170.193 15.2196 169.658 16.0019 168.844C16.6915 168.126 16.7318 166.985 16.0195 166.264Z" fill="#E56156"/>
<path d="M19.1854 179.639C18.6478 177.55 16.8801 175.947 14.6689 175.964C13.7038 175.971 12.8928 176.747 12.8866 177.723C12.88 178.738 13.6816 179.429 14.6401 179.506C14.6931 179.52 14.7809 179.549 14.8387 179.568C14.8726 179.586 14.9065 179.605 14.9394 179.626C14.9891 179.666 15.0887 179.739 15.1264 179.778C15.1463 179.801 15.1572 179.813 15.1701 179.828C15.2285 179.915 15.286 180.003 15.3374 180.093C15.3542 180.122 15.3946 180.211 15.4262 180.282C15.4655 180.394 15.5017 180.508 15.534 180.622C15.8026 181.617 16.8537 182.225 17.8505 181.957C18.8522 181.687 19.442 180.635 19.1854 179.639Z" fill="#E56156"/>
<path d="M6.27054 181.592C4.45574 182.644 2.86491 184.013 1.47584 185.576C-0.0351106 187.275 2.22922 189.566 3.94781 188.079C5.29432 186.915 6.52274 185.609 8.03094 184.648C9.93778 183.434 8.25095 180.445 6.27054 181.592Z" fill="#E56156"/>
<path d="M31.2819 170.098C31.2112 170.058 31.1424 170.014 31.0757 169.967C31.1086 169.993 31.1285 170.01 31.1523 170.03C30.7115 169.687 30.6409 169.631 30.9444 169.865C30.8738 169.806 30.8042 169.743 30.7366 169.68C30.6938 169.641 30.5401 169.449 30.4855 169.386C30.3637 169.196 30.262 168.994 30.1733 168.787C29.8629 168.068 28.8748 167.77 28.1736 167.958C27.241 168.208 26.6676 169.2 26.9196 170.134C27.2771 171.455 28.0828 172.748 29.357 173.344C30.2882 173.78 31.3792 173.631 31.9423 172.684C32.471 171.794 32.1605 170.629 31.2819 170.098Z" fill="#E56156"/>
<path d="M30.8268 179.634C30.7367 179.505 30.6674 179.381 30.6034 179.237C30.5975 179.223 30.5945 179.218 30.5886 179.207C30.5886 179.205 30.5886 179.203 30.5886 179.201C30.5965 179.216 30.6015 179.224 30.6103 179.243C30.6016 179.2 30.5948 179.172 30.5889 179.147C30.5865 179.066 30.584 178.986 30.5885 178.906C30.5936 178.883 30.5978 178.866 30.604 178.834C30.6276 178.738 30.6602 178.645 30.6928 178.553C30.6866 178.585 30.7169 178.533 30.7868 178.392C31.2692 177.555 31.0042 176.462 30.1664 175.964C29.2947 175.447 28.2845 175.79 27.7394 176.585C26.7016 178.095 26.4691 180.507 27.9437 181.829C28.5591 182.381 29.411 182.558 30.1558 182.129C30.9598 181.665 31.4026 180.449 30.8268 179.634Z" fill="#E56156"/>
<path d="M51.1997 166.597C50.9243 165.569 49.8847 165.034 48.8772 165.259C47.4952 165.568 46.2719 166.399 45.2934 167.404C44.5646 168.154 44.5308 169.362 45.276 170.117C46.038 170.889 47.2104 170.832 47.9889 170.135C48.0744 170.056 48.1619 169.98 48.2524 169.906C48.0946 170.018 48.1097 170.007 48.2966 169.874C48.5045 169.724 48.7244 169.589 48.9433 169.456C49.38 169.19 49.8535 168.952 50.314 168.733C51.0723 168.369 51.4057 167.369 51.1997 166.597Z" fill="#E56156"/>
<path d="M52.025 176.668C51.0233 176.61 50.1137 176.543 49.1323 176.14C48.3633 175.824 47.395 176.329 47.0008 176.991C46.4892 177.852 46.7614 179.077 47.6592 179.572C49.0105 180.316 50.4513 180.661 51.9994 180.641C53.0826 180.626 53.9911 179.766 53.9982 178.667C54.0054 177.542 53.1056 176.73 52.025 176.668Z" fill="#E56156"/>
<path d="M70.3764 170.961C70.1584 170.809 69.9474 170.648 69.7334 170.49C70.1315 170.784 69.5296 170.303 69.4431 170.222C69.2612 170.052 69.0944 169.869 68.9306 169.683C68.9008 169.648 68.871 169.613 68.8423 169.577C68.8323 169.562 68.6677 169.354 68.6429 169.319C68.0472 168.487 67.0259 168.077 66.0713 168.628C65.2061 169.127 64.8373 170.327 65.3797 171.199C66.1696 172.47 67.131 173.504 68.3696 174.344C69.2588 174.946 70.5414 174.535 71.0641 173.656C71.6423 172.684 71.2535 171.571 70.3764 170.961Z" fill="#E56156"/>
<path d="M82.9734 178.798C82.2083 178.024 80.9224 178.014 80.1474 178.78C79.0806 179.834 78.3014 181.267 77.8872 182.698C77.5804 183.756 78.2291 184.896 79.2832 185.194C80.4401 185.521 81.3557 184.814 81.7792 183.797C81.5964 184.235 81.913 183.519 81.9445 183.445C82.1709 182.91 82.2237 182.789 82.1028 183.084C82.1576 182.964 82.2153 182.844 82.2751 182.726C82.3896 182.493 82.5191 182.268 82.6525 182.046C82.7172 181.941 82.7838 181.839 82.8535 181.737C82.8626 181.723 82.8646 181.719 82.8727 181.708C82.8918 181.69 82.9159 181.666 82.9542 181.624C83.6904 180.821 83.7662 179.602 82.9734 178.798Z" fill="#E56156"/>
<path d="M91.5901 167.498C91.0064 167.926 90.5898 168.325 90.1491 168.901C90.0109 169.081 89.8797 169.265 89.7446 169.447C89.9645 169.15 89.5119 169.704 89.4636 169.756C88.7668 170.502 88.7073 171.658 89.4465 172.407C90.1688 173.139 91.3649 173.136 92.0975 172.424C92.4356 172.095 92.7359 171.737 93.0273 171.366C93.3197 170.994 93.6152 170.6 94.0462 169.986C95.0565 168.545 93.049 166.429 91.5901 167.498Z" fill="#E56156"/>
<path d="M104.539 172.779C102.917 173.124 101.445 173.837 99.9725 174.578C99.0325 175.05 98.7591 176.342 99.2636 177.214C99.8184 178.175 100.951 178.38 101.9 177.923C103.077 177.359 104.258 176.766 105.507 176.378C107.806 175.664 106.887 172.282 104.539 172.779Z" fill="#E56156"/>
<path d="M102.087 183.218C101.662 184.717 101.245 186.229 101.254 187.8C101.267 190.374 105.084 190.371 105.226 187.826C105.294 186.614 105.533 185.448 105.804 184.266C106.356 181.851 102.771 180.813 102.087 183.218Z" fill="#E56156"/>
<path d="M123.501 177.652C123.338 177.608 123.174 177.571 123.009 177.535C122.888 177.504 122.765 177.494 122.642 177.476C122.639 177.469 122.634 177.462 122.631 177.455C122.296 176.674 121.22 176.352 120.462 176.555C119.463 176.823 118.809 177.908 119.1 178.917C119.683 180.931 121.512 181.753 123.477 181.252C125.266 180.795 125.279 178.134 123.501 177.652Z" fill="#E56156"/>
<path d="M125.732 166.283C125.182 165.33 124.082 165.154 123.144 165.587C122.186 166.029 121.282 166.667 120.788 167.63C120.326 168.529 120.529 169.633 121.438 170.173C122.312 170.693 123.457 170.388 123.98 169.524C123.997 169.496 124.002 169.485 124.012 169.466C124.023 169.455 124.028 169.451 124.042 169.436C124.057 169.421 124.06 169.416 124.072 169.405C124.088 169.395 124.095 169.391 124.117 169.377C124.407 169.188 124.729 169.033 125.036 168.872C125.949 168.391 126.233 167.151 125.732 166.283Z" fill="#E56156"/>
<path d="M148.972 183.353C148.758 181.624 148.027 179.978 147.891 178.252C147.712 175.971 144.387 175.886 144.301 178.229C144.23 180.141 144.724 182.012 145.256 183.832C145.832 185.799 149.243 185.536 148.972 183.353Z" fill="#E56156"/>
<path d="M161.617 183.571C161.401 183.383 161.496 183.481 161.617 183.571V183.571Z" fill="#E56156"/>
<path d="M163.373 185.169C163.035 184.607 162.584 184.193 162.048 183.825C161.942 183.752 161.822 183.695 161.71 183.633C161.68 183.616 161.648 183.593 161.618 183.571C161.657 183.604 161.703 183.646 161.761 183.698C160.936 182.963 159.716 182.866 158.89 183.68C158.104 184.456 158.094 185.765 158.872 186.551C159.14 186.822 159.458 187.043 159.779 187.247C159.905 187.327 160.025 187.413 160.151 187.491C160.316 187.608 160.302 187.59 160.106 187.437C160.274 187.601 160.46 187.735 160.666 187.843C162.346 188.806 164.409 186.892 163.373 185.169Z" fill="#E56156"/>
<path d="M159.3 166.554C158.583 165.828 157.555 165.931 156.818 166.538C157.071 166.331 156.591 166.616 156.525 166.647C156.244 166.778 156.008 166.99 155.77 167.184C155.015 167.805 155.114 169.07 155.754 169.717C156.456 170.428 157.572 170.397 158.287 169.733C158.047 169.956 158.468 169.637 158.551 169.592C158.819 169.447 159.063 169.241 159.286 169.036C159.986 168.385 159.956 167.218 159.3 166.554Z" fill="#E56156"/>
<path d="M177.23 174.857C176.936 173.76 175.867 173.263 174.811 173.464C173.54 173.703 172.319 174.129 171.07 174.462C168.609 175.12 169.621 178.829 172.093 178.268C173.353 177.982 174.602 177.655 175.837 177.277C176.865 176.962 177.516 175.925 177.23 174.857Z" fill="#E56156"/>
<path d="M170.766 156.459C170.115 158.277 169.498 160.106 168.828 161.918C168.086 163.922 171.408 165.359 172.281 163.4C173.137 161.481 174.024 159.564 174.681 157.567C175.51 155.056 171.642 154.017 170.766 156.459Z" fill="#E56156"/>
</svg>
