<svg width="179" height="176" viewBox="0 0 179 176" fill="none" xmlns="http://www.w3.org/2000/svg">
<path d="M8.73239 17.4746C7.24234 21.4941 7.83658 26.1833 10.7153 29.7438C13.594 33.3043 18.0141 34.8179 22.1968 34.1274C23.6868 30.1079 23.0926 25.4187 20.2139 21.8582C17.3352 18.2991 12.9151 16.7854 8.73239 17.4746Z" fill="#8FAD32"/>
<path d="M12.8271 22.5384L51.077 69.8453" stroke="#667B24" stroke-width="1.2973" stroke-miterlimit="10" stroke-linecap="round"/>
<path d="M4.37695 39.619C6.12754 43.5292 9.8212 46.4187 14.3414 46.8738C18.8616 47.329 23.043 45.2315 25.52 41.7477C23.7694 37.8375 20.0757 34.948 15.5555 34.4928C11.0353 34.0377 6.85396 36.1352 4.37695 39.619Z" fill="#8FAD32"/>
<path d="M10.8047 40.2666L28.2143 42.0195" stroke="#667B24" stroke-width="1.2973" stroke-miterlimit="10" stroke-linecap="round"/>
<path d="M31.0698 17.4629C34.5093 19.9714 36.5782 24.2093 36.129 28.7893C35.6798 33.3693 32.828 37.1105 28.9688 38.8855C25.5292 36.3771 23.4604 32.1391 23.9096 27.5592C24.3588 22.9792 27.2105 19.2367 31.0698 17.4629Z" fill="#8FAD32"/>
<path d="M30.4302 23.9766L28.7002 41.6164" stroke="#667B24" stroke-width="1.2973" stroke-miterlimit="10" stroke-linecap="round"/>
<path d="M14.1611 51.7217C15.9117 55.632 19.6054 58.5215 24.1256 58.9766C28.6458 59.4317 32.8272 57.3355 35.3042 53.8504C33.5523 49.9402 29.8599 47.0507 25.3397 46.5956C20.8195 46.1405 16.6381 48.2367 14.1611 51.7217Z" fill="#8FAD32"/>
<path d="M20.5908 52.368L38.0004 54.1209" stroke="#667B24" stroke-width="1.2973" stroke-miterlimit="10" stroke-linecap="round"/>
<path d="M40.8549 29.5644C44.2945 32.0728 46.3633 36.3108 45.9141 40.8907C45.465 45.4707 42.6132 49.212 38.7539 50.987C35.3156 48.4785 33.2455 44.2406 33.6947 39.6606C34.1439 35.0806 36.9957 31.3394 40.8549 29.5644Z" fill="#8FAD32"/>
<path d="M40.2151 36.0793L38.4863 53.7178" stroke="#667B24" stroke-width="1.2973" stroke-miterlimit="10" stroke-linecap="round"/>
<path d="M23.9209 63.7919C25.6715 67.7022 29.3652 70.5916 33.8854 71.0468C38.4056 71.5019 42.587 69.4044 45.064 65.9207C43.3134 62.0104 39.6197 59.1209 35.0995 58.6658C30.5793 58.2119 26.3979 60.3082 23.9209 63.7919Z" fill="#8FAD32"/>
<path d="M30.3525 64.4395L47.7609 66.1924" stroke="#667B24" stroke-width="1.2973" stroke-miterlimit="10" stroke-linecap="round"/>
<path d="M50.6147 41.6359C54.0542 44.1443 56.1231 48.3823 55.6739 52.9623C55.2247 57.5423 52.373 61.2835 48.5137 63.0585C45.0742 60.5501 43.0053 56.3121 43.4545 51.7321C43.9037 47.1521 46.7554 43.4096 50.6147 41.6359Z" fill="#8FAD32"/>
<path d="M49.9749 48.1495L48.2461 65.7893" stroke="#667B24" stroke-width="1.2973" stroke-miterlimit="10" stroke-linecap="round"/>
<path d="M169.884 28.4486C171.374 32.4681 170.78 37.1573 167.901 40.7178C165.023 44.2782 160.603 45.7919 156.42 45.1014C154.93 41.0819 155.524 36.3927 158.403 32.8322C161.281 29.2717 165.702 27.7581 169.884 28.4486Z" fill="#8FAD32"/>
<path d="M165.791 33.5124L127.541 80.8179" stroke="#667B24" stroke-width="1.2973" stroke-miterlimit="10" stroke-linecap="round"/>
<path d="M174.241 50.593C172.49 54.5032 168.796 57.3927 164.276 57.8478C159.756 58.303 155.575 56.2055 153.098 52.7217C154.85 48.8115 158.542 45.922 163.062 45.4668C167.582 45.0117 171.765 47.1079 174.241 50.593Z" fill="#8FAD32"/>
<path d="M167.812 51.2406L150.402 52.9922" stroke="#667B24" stroke-width="1.2973" stroke-miterlimit="10" stroke-linecap="round"/>
<path d="M147.547 28.4356C144.107 30.9441 142.038 35.1821 142.488 39.762C142.937 44.342 145.789 48.0832 149.648 49.8583C153.087 47.3498 155.156 43.1118 154.707 38.5318C154.258 33.9519 151.406 30.2107 147.547 28.4356Z" fill="#8FAD32"/>
<path d="M148.188 34.9506L149.918 52.589" stroke="#667B24" stroke-width="1.2973" stroke-miterlimit="10" stroke-linecap="round"/>
<path d="M164.457 62.6944C162.706 66.6047 159.012 69.4941 154.492 69.9493C149.972 70.4044 145.79 68.3069 143.313 64.8232C145.064 60.9129 148.758 58.0234 153.278 57.5683C157.798 57.1131 161.98 59.2107 164.457 62.6944Z" fill="#8FAD32"/>
<path d="M158.027 63.342L140.617 65.0949" stroke="#667B24" stroke-width="1.2973" stroke-miterlimit="10" stroke-linecap="round"/>
<path d="M137.764 40.5383C134.324 43.0468 132.255 47.2848 132.704 51.8648C133.154 56.4447 136.005 60.1859 139.865 61.961C143.304 59.4512 145.373 55.2145 144.924 50.6346C144.475 46.0546 141.623 42.3121 137.764 40.5383Z" fill="#8FAD32"/>
<path d="M138.402 47.052L140.132 64.6918" stroke="#667B24" stroke-width="1.2973" stroke-miterlimit="10" stroke-linecap="round"/>
<path d="M154.696 74.7659C152.945 78.6762 149.252 81.5657 144.731 82.0208C140.211 82.476 136.03 80.3784 133.553 76.8947C135.303 72.9844 138.997 70.0949 143.517 69.6398C148.037 69.1846 152.22 71.2822 154.696 74.7659Z" fill="#8FAD32"/>
<path d="M148.267 75.4135L130.857 77.1652" stroke="#667B24" stroke-width="1.2973" stroke-miterlimit="10" stroke-linecap="round"/>
<path d="M128.003 52.6086C124.563 55.117 122.495 59.355 122.944 63.935C123.393 68.5149 126.245 72.2562 130.104 74.0312C133.542 71.5228 135.612 67.2848 135.163 62.7048C134.714 58.1248 131.862 54.3836 128.003 52.6086Z" fill="#8FAD32"/>
<path d="M128.642 59.1235L130.372 76.762" stroke="#667B24" stroke-width="1.2973" stroke-miterlimit="10" stroke-linecap="round"/>
<path d="M119.904 0.925873C122.706 4.14694 123.792 8.7451 122.348 13.1092C120.904 17.4733 117.301 20.4772 113.149 21.3368C110.348 18.1144 109.262 13.5175 110.706 9.15344C112.15 4.78933 115.752 1.78413 119.904 0.925873Z" fill="#8FAD32"/>
<path d="M117.849 7.13263L98.6592 65.1131" stroke="#667B24" stroke-width="1.2973" stroke-miterlimit="10" stroke-linecap="round"/>
<path d="M131.733 20.0611C131.466 24.3459 129.025 28.3758 124.959 30.4265C120.893 32.4772 116.249 32.0208 112.713 29.6541C112.981 25.3693 115.421 21.3394 119.487 19.2886C123.553 17.2379 128.197 17.6944 131.733 20.0611Z" fill="#8FAD32"/>
<path d="M125.95 22.9792L110.288 30.8778" stroke="#667B24" stroke-width="1.2973" stroke-miterlimit="10" stroke-linecap="round"/>
<path d="M99.0173 8.94537C96.6814 12.5279 96.2309 17.2327 98.2549 21.3537C100.279 25.4746 104.256 27.9467 108.485 28.2172C110.821 24.6346 111.271 19.9297 109.247 15.8088C107.223 11.6892 103.246 9.21716 99.0173 8.94537Z" fill="#8FAD32"/>
<path d="M101.896 14.8062L109.692 30.6749" stroke="#667B24" stroke-width="1.2973" stroke-miterlimit="10" stroke-linecap="round"/>
<path d="M126.823 34.8946C126.556 39.1794 124.115 43.2093 120.049 45.2601C115.982 47.3108 111.339 46.8543 107.803 44.4876C108.071 40.2028 110.511 36.1729 114.578 34.1222C118.644 32.0715 123.288 32.5279 126.823 34.8946Z" fill="#8FAD32"/>
<path d="M121.04 37.8114L105.378 45.71" stroke="#667B24" stroke-width="1.2973" stroke-miterlimit="10" stroke-linecap="round"/>
<path d="M94.109 23.7789C91.7732 27.3615 91.3227 32.0663 93.3467 36.1873C95.3707 40.3069 99.348 42.7802 103.577 43.0507C105.913 39.4681 106.363 34.7633 104.339 30.6424C102.314 26.5227 98.3379 24.0494 94.109 23.7789Z" fill="#8FAD32"/>
<path d="M96.9873 29.6385L104.783 45.5085" stroke="#667B24" stroke-width="1.2973" stroke-miterlimit="10" stroke-linecap="round"/>
<path d="M121.927 49.6892C121.661 53.974 119.219 58.0039 115.154 60.0546C111.086 62.1053 106.443 61.6489 102.907 59.2822C103.174 54.9974 105.615 50.9675 109.681 48.9168C113.748 46.8661 118.392 47.3225 121.927 49.6892Z" fill="#8FAD32"/>
<path d="M116.143 52.6073L100.48 60.5058" stroke="#667B24" stroke-width="1.2973" stroke-miterlimit="10" stroke-linecap="round"/>
<path d="M89.2116 38.5735C86.8758 42.156 86.4253 46.8608 88.4492 50.9818C90.4732 55.1027 94.4505 57.5747 98.6794 57.8465C101.015 54.2639 101.466 49.5591 99.4417 45.4382C97.4178 41.3173 93.4417 38.8452 89.2116 38.5735Z" fill="#8FAD32"/>
<path d="M92.0908 44.4343L99.8876 60.303" stroke="#667B24" stroke-width="1.2973" stroke-miterlimit="10" stroke-linecap="round"/>
<path d="M58.5005 60.4863C66.8363 73.8843 78.6438 83.7113 91.9875 89.5449C92.5471 74.8309 88.8893 59.7984 80.5535 46.4005C72.2177 33.0026 60.4102 23.1756 47.0665 17.342C46.5057 32.0559 50.1647 47.0884 58.5005 60.4863Z" fill="#A4C639"/>
<path d="M53.3047 27.3706L86.3861 80.5435" stroke="#7B952B" stroke-width="1.9753" stroke-miterlimit="10" stroke-linecap="round"/>
<path d="M127.941 67.1001C122.129 81.8023 112.267 93.6281 100.183 101.808C97.0101 87.4382 97.929 71.9831 103.74 57.2809C109.552 42.5787 119.413 30.7529 131.498 22.5735C134.671 36.9428 133.751 52.3979 127.941 67.1001Z" fill="#009256"/>
<path d="M127.148 33.5787L104.086 91.9285" stroke="#00683D" stroke-width="1.9753" stroke-miterlimit="10" stroke-linecap="round"/>
<path d="M66.3611 84.3381C74.1091 98.0936 85.4802 108.436 98.5583 114.856C99.7544 100.181 96.7499 85 89.0019 71.2445C81.2539 57.4889 69.8828 47.147 56.8047 40.7269C55.6085 55.4031 58.613 70.5826 66.3611 84.3381Z" fill="#009256"/>
<path d="M62.6045 51.0234L93.3527 105.614" stroke="#00683D" stroke-width="1.9753" stroke-miterlimit="10" stroke-linecap="round"/>
<path d="M29.3518 92.3914C42.7405 100.564 57.6474 103.966 72.1552 103.101C66.1282 89.7022 56.192 77.9389 42.8034 69.7672C29.4147 61.5943 14.5078 58.1924 0 59.0572C6.02695 72.4564 15.9632 84.2185 29.3518 92.3914Z" fill="#009256"/>
<path d="M10.0215 65.1742L63.159 97.6098" stroke="#00683D" stroke-width="1.9753" stroke-miterlimit="10" stroke-linecap="round"/>
<path d="M79.9844 61.606C80.0024 77.4434 84.8357 92.1313 93.0663 104.267C101.271 92.1118 106.071 77.4135 106.053 61.5761C106.035 45.7386 101.202 31.0507 92.9714 18.9155C84.7678 31.0702 79.9677 45.7685 79.9844 61.606Z" fill="#A4C639"/>
<path d="M92.9854 30.7698L93.0556 93.6255" stroke="#7B952B" stroke-width="1.9753" stroke-miterlimit="10" stroke-linecap="round"/>
<path d="M149.648 92.3914C136.26 100.564 121.353 103.966 106.844 103.101C112.871 89.7022 122.807 77.9389 136.196 69.7672C149.584 61.5943 164.491 58.1924 179 59.0572C172.973 72.4564 163.037 84.2185 149.648 92.3914Z" fill="#009256"/>
<path d="M168.976 65.1742L115.839 97.6098" stroke="#00683D" stroke-width="1.9753" stroke-miterlimit="10" stroke-linecap="round"/>
<path d="M139.264 75.7633C129.319 87.9818 116.377 96.2119 102.409 100.283C103.695 85.6164 109.206 71.1755 119.151 58.9571C129.097 46.7386 142.039 38.5084 156.006 34.4369C154.72 49.104 149.209 63.5449 139.264 75.7633Z" fill="#A4C639"/>
<path d="M148.562 43.5826L109.092 92.0741" stroke="#7B952B" stroke-width="1.9753" stroke-miterlimit="10" stroke-linecap="round"/>
<path d="M39.3536 76.0312C49.2988 88.2497 62.2408 96.4799 76.2083 100.551C74.9223 85.8843 69.4113 71.4434 59.4661 59.2249C49.5208 47.0065 36.5788 38.7763 22.6113 34.7048C23.8973 49.3732 29.4083 63.8127 39.3536 76.0312Z" fill="#A4C639"/>
<path d="M30.0547 43.8517L69.525 92.342" stroke="#7B952B" stroke-width="1.9753" stroke-miterlimit="10" stroke-linecap="round"/>
<path d="M147.96 106.668H23.0819C18.4153 106.668 14.6318 102.835 14.6318 98.1066C14.6318 93.3784 18.4153 89.5449 23.0819 89.5449H147.96C152.627 89.5449 156.41 93.3784 156.41 98.1066C156.41 102.836 152.627 106.668 147.96 106.668Z" fill="#D9B34F"/>
<path d="M133.793 176H37.2475C29.1645 176 22.6113 169.36 22.6113 161.17V106.668H148.429V161.17C148.428 169.36 141.876 176 133.793 176Z" fill="#C7A448"/>
<path d="M51.0926 113.091H31.9619V119.632H51.0926V113.091Z" fill="#E1C272"/>
<path d="M127.869 131.433H108.738V137.974H127.869V131.433Z" fill="#E1C272"/>
<path d="M70.2215 153.949H51.0908V160.49H70.2215V153.949Z" fill="#E1C272"/>
<path d="M115.485 121.741H96.3545V128.282H115.485V121.741Z" fill="#E1C272"/>
<path d="M119.012 155.732H99.8809V162.273H119.012V155.732Z" fill="#E1C272"/>
<path d="M138.959 121.741H119.828V128.282H138.959V121.741Z" fill="#E1C272"/>
<path d="M60.658 123.317H41.5273V129.858H60.658V123.317Z" fill="#E1C272"/>
<path d="M49.4707 13.2718C43.3604 22.0065 42.4081 33.8868 48.0038 43.7893C48.204 44.143 48.4093 44.4902 48.6224 44.8322C59.4609 62.264 86.1124 46.8023 76.7627 28.5072C76.5791 28.1482 76.3879 27.7919 76.1877 27.4382C70.5933 17.537 59.9986 12.3537 49.4707 13.2718Z" fill="#824B99"/>
<path d="M69.6454 13.6385C72.6718 16.1729 75.3092 19.2874 77.3755 22.9441C77.6155 23.368 77.8439 23.7945 78.0634 24.2237C85.0491 37.8921 75.263 50.238 63.7571 52.5371C58.3975 39.2952 60.8964 24.3212 69.6454 13.6385Z" fill="#9B59B6"/>
<path d="M39.5703 31.0858C40.1953 35.013 41.5108 38.8946 43.5771 42.55C43.8171 42.9739 44.0635 43.3901 44.3189 43.7997C52.4161 56.8231 67.8774 54.5227 75.6601 45.632C67.1023 34.2471 53.0924 28.8491 39.5703 31.0858Z" fill="#AF7AC5"/>
<path d="M146.959 52.697C136.405 53.2119 126.589 59.7815 122.349 70.3524C122.197 70.7295 122.055 71.1092 121.92 71.4889C115.065 90.8842 143.516 102.602 151.96 83.8608C152.125 83.4941 152.284 83.1209 152.434 82.7438C156.675 72.1717 154.166 60.5266 146.959 52.697Z" fill="#824B99"/>
<path d="M159.119 69.0117C159.018 72.9883 158.225 77.013 156.659 80.9155C156.478 81.368 156.288 81.8141 156.089 82.2549C149.78 96.2575 134.154 96.0689 125.271 88.3108C132.251 75.8686 145.424 68.6242 159.119 69.0117Z" fill="#9B59B6"/>
<path d="M127.014 55.7893C124.35 58.71 122.145 62.1535 120.579 66.0572C120.398 66.5098 120.226 66.9636 120.066 67.4187C114.944 81.9103 126.269 92.8218 137.975 93.5436C141.542 79.6957 137.093 65.1924 127.014 55.7893Z" fill="#AF7AC5"/>
<path d="M89.3536 0C84.2019 0 80.0244 4.23145 80.0244 9.45251V95.078C80.0244 100.298 84.2006 104.531 89.3536 104.531C94.5052 104.531 98.6828 100.299 98.6828 95.078V9.45251C98.6828 4.23275 94.5065 0 89.3536 0Z" fill="#C7A448"/>
<path d="M128.875 17.9909C120.656 18.4664 113.057 23.5929 109.832 31.7539C109.717 32.0455 109.609 32.3381 109.507 32.6307C104.31 47.5975 126.566 56.3916 133.004 41.9159C133.13 41.6322 133.251 41.3445 133.366 41.053C136.591 32.8932 134.549 23.9567 128.875 17.9909Z" fill="#D344C0"/>
<path d="M138.472 30.4439C138.422 33.502 137.835 36.6033 136.644 39.6167C136.506 39.9664 136.361 40.311 136.21 40.6504C131.399 51.4663 119.224 51.4404 112.243 45.5413C117.589 35.9213 127.799 30.2499 138.472 30.4439Z" fill="#D36BC5"/>
<path d="M113.358 20.5211C111.303 22.7877 109.612 25.4522 108.421 28.4656C108.284 28.8153 108.153 29.1652 108.031 29.5164C104.15 40.6987 113.055 49.0028 122.181 49.4693C124.857 38.793 121.281 27.6747 113.358 20.5211Z" fill="#DC89D1"/>
<path d="M40.5222 64.5958C36.5809 72.6597 37.3911 82.6205 43.4242 90.0459C43.6395 90.3107 43.8592 90.571 44.0841 90.8236C55.5306 103.759 75.7831 87.3137 65.4669 73.4588C65.2645 73.187 65.0555 72.9191 64.8405 72.6532C58.8085 65.2281 49.2247 62.3932 40.5222 64.5958Z" fill="#D344C0"/>
<path d="M57.4872 62.133C60.3669 63.8149 63.0006 66.0302 65.2275 68.7722C65.4853 69.0896 65.7362 69.4122 65.9776 69.737C73.6855 80.0887 67.1522 91.6446 57.8162 95.1246C51.5318 84.9031 51.5984 72.1709 57.4872 62.133Z" fill="#D36BC5"/>
<path d="M34.6336 80.6918C35.6888 83.8548 37.3173 86.8867 39.5456 89.6279C39.8033 89.9453 40.067 90.2563 40.3357 90.5607C48.8881 100.226 61.5401 96.202 66.8612 87.7797C58.1442 79.5318 45.6664 76.9866 34.6336 80.6918Z" fill="#DC89D1"/>
</svg>
