<svg width="113" height="118" viewBox="0 0 113 118" fill="none" xmlns="http://www.w3.org/2000/svg">
<mask id="mask0_25_2" style="mask-type:luminance" maskUnits="userSpaceOnUse" x="0" y="0" width="113" height="118">
<path d="M107.191 21.3664V21.2929H106.279H88.7399C89.511 20.3983 89.9451 19.1131 89.9451 17.2609C89.9451 10.395 89.1628 0 81.8642 0C76.0409 0 67.8338 6.62025 64.7537 12.7837C63.0719 9.8784 59.7975 7.9065 56.0332 7.9065C52.269 7.9065 48.9946 9.8784 47.3128 12.7837C44.2338 6.62025 36.0267 0 30.2023 0C22.9048 0 22.1225 10.395 22.1225 17.2609C22.1225 19.1131 22.5555 20.3973 23.3277 21.2929H5.78758H4.8758V21.3675C2.1137 21.7801 0 24.024 0 26.7393V39.8328C0 42.5481 2.1137 44.792 4.8758 45.2046V45.2791V55.4967V65.9652V76.1827V86.6512V96.8688V107.337V108.305C4.8758 113.414 9.27731 117.555 14.7067 117.555H44.5619H67.5046H97.3598C102.789 117.555 107.191 113.414 107.191 108.305V107.337V96.8688V86.6512V76.1827V65.9652V55.4967V45.2791V45.2046C109.953 44.792 112.066 42.5481 112.066 39.8328V26.7393C112.068 24.0229 109.953 21.7791 107.191 21.3664Z" fill="white"/>
</mask>
<g mask="url(#mask0_25_2)">
<path d="M89.9451 17.261C89.9451 24.1269 84.0292 23.2533 76.7317 23.2533C69.4342 23.2533 63.5182 24.1269 63.5182 17.261C63.5182 10.395 74.5667 0 81.8642 0C89.1617 0 89.9451 10.395 89.9451 17.261Z" fill="#EDBB00"/>
<path d="M22.1224 17.261C22.1224 24.1269 28.0384 23.2533 35.3359 23.2533C42.6334 23.2533 48.5493 24.1269 48.5493 17.261C48.5493 10.395 37.5009 0 30.2034 0C22.9048 0 22.1224 10.395 22.1224 17.261Z" fill="#EDBB00"/>
<path d="M56.0332 26.5797C61.5138 26.5797 65.9567 22.3996 65.9567 17.2431C65.9567 12.0866 61.5138 7.90649 56.0332 7.90649C50.5526 7.90649 46.1097 12.0866 46.1097 17.2431C46.1097 22.3996 50.5526 26.5797 56.0332 26.5797Z" fill="#DB0030"/>
</g>
<mask id="mask1_25_2" style="mask-type:luminance" maskUnits="userSpaceOnUse" x="0" y="0" width="113" height="118">
<path d="M107.191 21.3664V21.2929H106.279H88.7399C89.511 20.3983 89.9451 19.1131 89.9451 17.2609C89.9451 10.395 89.1628 0 81.8642 0C76.0409 0 67.8338 6.62025 64.7537 12.7837C63.0719 9.8784 59.7975 7.9065 56.0332 7.9065C52.269 7.9065 48.9946 9.8784 47.3128 12.7837C44.2338 6.62025 36.0267 0 30.2023 0C22.9048 0 22.1225 10.395 22.1225 17.2609C22.1225 19.1131 22.5555 20.3973 23.3277 21.2929H5.78758H4.8758V21.3675C2.1137 21.7801 0 24.024 0 26.7393V39.8328C0 42.5481 2.1137 44.792 4.8758 45.2046V45.2791V55.4967V65.9652V76.1827V86.6512V96.8688V107.337V108.305C4.8758 113.414 9.27731 117.555 14.7067 117.555H44.5619H67.5046H97.3598C102.789 117.555 107.191 113.414 107.191 108.305V107.337V96.8688V86.6512V76.1827V65.9652V55.4967V45.2791V45.2046C109.953 44.792 112.066 42.5481 112.066 39.8328V26.7393C112.068 24.0229 109.953 21.7791 107.191 21.3664Z" fill="white"/>
</mask>
<g mask="url(#mask1_25_2)">
<path d="M107.191 21.2929H4.87579V117.557H107.191V21.2929Z" fill="#A50044"/>
</g>
<mask id="mask2_25_2" style="mask-type:luminance" maskUnits="userSpaceOnUse" x="0" y="0" width="113" height="118">
<path d="M107.191 21.3664V21.2929H106.279H88.7399C89.511 20.3983 89.9451 19.1131 89.9451 17.2609C89.9451 10.395 89.1628 0 81.8642 0C76.0409 0 67.8338 6.62025 64.7537 12.7837C63.0719 9.8784 59.7975 7.9065 56.0332 7.9065C52.269 7.9065 48.9946 9.8784 47.3128 12.7837C44.2338 6.62025 36.0267 0 30.2023 0C22.9048 0 22.1225 10.395 22.1225 17.2609C22.1225 19.1131 22.5555 20.3973 23.3277 21.2929H5.78758H4.8758V21.3675C2.1137 21.7801 0 24.024 0 26.7393V39.8328C0 42.5481 2.1137 44.792 4.8758 45.2046V45.2791V55.4967V65.9652V76.1827V86.6512V96.8688V107.337V108.305C4.8758 113.414 9.27731 117.555 14.7067 117.555H44.5619H67.5046H97.3598C102.789 117.555 107.191 113.414 107.191 108.305V107.337V96.8688V86.6512V76.1827V65.9652V55.4967V45.2791V45.2046C109.953 44.792 112.066 42.5481 112.066 39.8328V26.7393C112.068 24.0229 109.953 21.7791 107.191 21.3664Z" fill="white"/>
</mask>
<g mask="url(#mask2_25_2)">
<path d="M107.191 45.2781H4.87579V55.4956H107.191V45.2781Z" fill="#004D98"/>
<path d="M107.191 65.9651H4.87579V76.1827H107.191V65.9651Z" fill="#004D98"/>
<path d="M107.191 86.6512H4.87579V96.8688H107.191V86.6512Z" fill="#004D98"/>
<path d="M107.191 107.338H4.87579V117.556H107.191V107.338Z" fill="#004D98"/>
</g>
<mask id="mask3_25_2" style="mask-type:luminance" maskUnits="userSpaceOnUse" x="0" y="0" width="113" height="118">
<path d="M107.191 21.3664V21.2929H106.279H88.7399C89.511 20.3983 89.9451 19.1131 89.9451 17.2609C89.9451 10.395 89.1628 0 81.8642 0C76.0409 0 67.8338 6.62025 64.7537 12.7837C63.0719 9.8784 59.7975 7.9065 56.0332 7.9065C52.269 7.9065 48.9946 9.8784 47.3128 12.7837C44.2338 6.62025 36.0267 0 30.2023 0C22.9048 0 22.1225 10.395 22.1225 17.2609C22.1225 19.1131 22.5555 20.3973 23.3277 21.2929H5.78758H4.8758V21.3675C2.1137 21.7801 0 24.024 0 26.7393V39.8328C0 42.5481 2.1137 44.792 4.8758 45.2046V45.2791V55.4967V65.9652V76.1827V86.6512V96.8688V107.337V108.305C4.8758 113.414 9.27731 117.555 14.7067 117.555H44.5619H67.5046H97.3598C102.789 117.555 107.191 113.414 107.191 108.305V107.337V96.8688V86.6512V76.1827V65.9652V55.4967V45.2791V45.2046C109.953 44.792 112.066 42.5481 112.066 39.8328V26.7393C112.068 24.0229 109.953 21.7791 107.191 21.3664Z" fill="white"/>
</mask>
<g mask="url(#mask3_25_2)">
<path d="M106.279 45.2781H5.78758C2.59135 45.2781 0 42.84 0 39.8317V26.7383C0 23.7311 2.59135 21.2919 5.78758 21.2919H106.279C109.475 21.2919 112.068 23.73 112.068 26.7383V39.8317C112.068 42.84 109.475 45.2781 106.279 45.2781Z" fill="#FAF8F2"/>
</g>
<mask id="mask4_25_2" style="mask-type:luminance" maskUnits="userSpaceOnUse" x="0" y="0" width="113" height="118">
<path d="M107.191 21.3664V21.2929H106.279H88.7399C89.511 20.3983 89.9451 19.1131 89.9451 17.2609C89.9451 10.395 89.1628 0 81.8642 0C76.0409 0 67.8338 6.62025 64.7537 12.7837C63.0719 9.8784 59.7975 7.9065 56.0332 7.9065C52.269 7.9065 48.9946 9.8784 47.3128 12.7837C44.2338 6.62025 36.0267 0 30.2023 0C22.9048 0 22.1225 10.395 22.1225 17.2609C22.1225 19.1131 22.5555 20.3973 23.3277 21.2929H5.78758H4.8758V21.3675C2.1137 21.7801 0 24.024 0 26.7393V39.8328C0 42.5481 2.1137 44.792 4.8758 45.2046V45.2791V55.4967V65.9652V76.1827V86.6512V96.8688V107.337V108.305C4.8758 113.414 9.27731 117.555 14.7067 117.555H44.5619H67.5046H97.3598C102.789 117.555 107.191 113.414 107.191 108.305V107.337V96.8688V86.6512V76.1827V65.9652V55.4967V45.2791V45.2046C109.953 44.792 112.066 42.5481 112.066 39.8328V26.7393C112.068 24.0229 109.953 21.7791 107.191 21.3664Z" fill="white"/>
</mask>
<g mask="url(#mask4_25_2)">
<path d="M67.5046 21.2929H44.5619V117.557H67.5046V21.2929Z" fill="#EDBB00"/>
</g>
</svg>
